<?xml version="1.0" encoding="utf-8"?>
<!-- Generator: Adobe Illustrator 24.0.1, SVG Export Plug-In . SVG Version: 6.00 Build 0)  -->
<svg version="1.1" id="Calque_1" xmlns="http://www.w3.org/2000/svg" xmlns:xlink="http://www.w3.org/1999/xlink" x="0px" y="0px"
	 viewBox="0 0 48 48" style="enable-background:new 0 0 48 48;" xml:space="preserve">
<style type="text/css">
	.st0{fill:#1D1D1B;}
	.st1{fill:#FEEAD5;}
</style>
<path d="M-30.7,26.2h1.4v11c0,1.7,1.3,3.1,2.9,3.1h17.3c1.6,0,2.9-1.4,2.9-3.1v-11h1.4c0.8,0,1.4-0.7,1.4-1.6c0-0.4-0.2-0.8-0.4-1.1
	l-13-14.1c-0.6-0.6-1.5-0.6-2,0c0,0,0,0,0,0l-13,14.1c-0.6,0.6-0.6,1.6,0,2.2C-31.5,26-31.1,26.2-30.7,26.2z M-20.6,37.1v-7.8h5.8
	v7.8H-20.6z M-17.8,12.7l8.7,9.4v7.2l0,7.8H-12v-7.8c0-1.7-1.3-3.1-2.9-3.1h-5.8c-1.6,0-2.9,1.4-2.9,3.1v7.8h-2.9v-15L-17.8,12.7z"
	/>
<g>
	<path class="st0" d="M45.2,38.1H2.8c-1,0-1.9-0.8-1.9-1.9V10.9c0-1,0.8-1.9,1.9-1.9h42.4c1,0,1.9,0.8,1.9,1.9v25.4
		C47.1,37.3,46.2,38.1,45.2,38.1z"/>
	<path class="st1" d="M4.5,20.6V28h-1v-7.4H4.5z"/>
	<path class="st1" d="M6.3,28v-7.4h1l2.4,3.8c0.5,0.9,1,1.6,1.3,2.4l0,0c-0.1-1-0.1-1.9-0.1-3v-3.1h0.9V28h-1l-2.4-3.8
		c-0.5-0.8-1-1.7-1.4-2.5l0,0c0.1,0.9,0.1,1.8,0.1,3.1V28H6.3z"/>
	<path class="st1" d="M15,22h-2.3v-1.4h5.5V22H16v11.2h-1V22z"/>
	<path class="st1" d="M23,24.6h-2.9v2.7h3.2V28h-4.2v-7.4h4v0.8h-3v2.3H23V24.6z"/>
	<path class="st1" d="M24.7,20.7c0.5-0.1,1.2-0.2,1.8-0.2c1,0,1.7,0.2,2.1,0.6c0.4,0.3,0.6,0.8,0.6,1.4c0,1-0.6,1.6-1.4,1.9v0
		c0.6,0.2,0.9,0.7,1.1,1.5c0.2,1,0.4,1.7,0.6,2h-1c-0.1-0.2-0.3-0.8-0.5-1.8c-0.2-1-0.6-1.4-1.5-1.4h-0.9V28h-1V20.7z M25.6,24.1h1
		c1,0,1.7-0.6,1.7-1.4c0-1-0.7-1.4-1.7-1.4c-0.5,0-0.8,0-0.9,0.1V24.1z"/>
	<path class="st1" d="M31.6,16.5V28h-1V16.5H31.6z"/>
	<path class="st1" d="M34.4,20.6V25c0,1.7,0.7,2.4,1.7,2.4c1.1,0,1.8-0.7,1.8-2.4v-4.4h1v4.3c0,2.3-1.2,3.2-2.8,3.2
		c-1.5,0-2.7-0.9-2.7-3.2v-4.4H34.4z"/>
	<path class="st1" d="M40.5,26.9c0.4,0.3,1.1,0.5,1.7,0.5c1,0,1.6-0.5,1.6-1.3c0-0.7-0.4-1.1-1.4-1.5c-1.2-0.4-2-1.1-2-2.1
		c0-1.2,1-2,2.4-2c0.8,0,1.3,0.2,1.6,0.4l-0.3,0.8c-0.2-0.1-0.7-0.4-1.4-0.4c-1,0-1.4,0.6-1.4,1.1c0,0.7,0.5,1,1.5,1.4
		c1.3,0.5,1.9,1.1,1.9,2.2c0,1.1-0.8,2.1-2.6,2.1c-0.7,0-1.5-0.2-1.9-0.5L40.5,26.9z"/>
	<circle class="st1" cx="31" cy="13.5" r="2"/>
</g>
</svg>
